<svg width="600" height="599" viewBox="0 0 600 599" fill="none" xmlns="http://www.w3.org/2000/svg">
<path d="M556.383 5.37319C547.878 1.85353 538.766 0.0286384 529.562 0.000344237L529.344 0C501.189 0 475.401 10.1298 455.434 26.9404C454.675 27.579 453.925 28.2273 453.184 28.8851C433.247 45.6692 407.5 55.7828 379.388 55.7828C375.886 55.7828 372.42 55.6258 368.998 55.3185C366.181 42.5573 359.908 31.0923 351.209 21.9533L351.128 21.8681C351.094 21.8327 351.06 21.7972 351.026 21.7618L350.973 21.7065C350.926 21.6577 350.879 21.609 350.832 21.5603L350.743 21.4681C350.68 21.4032 350.617 21.3384 350.554 21.2737L350.491 21.2101C350.336 21.0517 350.18 20.894 350.023 20.737L350 20.7137L349.961 20.6747C349.899 20.6128 349.837 20.5512 349.775 20.4896L349.714 20.4289C349.645 20.3611 349.577 20.2933 349.508 20.2258L349.46 20.1789C349.398 20.1184 349.336 20.058 349.274 19.9977L349.207 19.9322C349.168 19.8948 349.129 19.8575 349.091 19.8202L349.002 19.7348L348.917 19.6528L348.796 19.5373C336.357 7.6668 319.586 0.288479 301.092 0.00851986C301.013 0.0072979 300.934 0.00620607 300.855 0.00524961L300.718 0.0037866C300.618 0.00277289 300.518 0.00196728 300.418 0.00137695L300.358 0.00103271L300.217 0.000344237L300 0C299.881 0 299.761 0.000428745 299.642 0.00103271L299.582 0.00137695C299.482 0.00196739 299.382 0.00277278 299.282 0.0037866L299.145 0.00524961C299.066 0.00620617 298.987 0.0072978 298.908 0.00851986C280.414 0.2885 263.643 7.66679 251.204 19.5373L251.083 19.6528L250.998 19.7348C250.93 19.8005 250.861 19.8663 250.793 19.9322L250.726 19.9977C250.664 20.058 250.602 20.1184 250.54 20.1789L250.492 20.2258C250.424 20.2933 250.355 20.3611 250.286 20.4289L250.225 20.4896C250.163 20.5512 250.101 20.6128 250.039 20.6747L250 20.7137L249.977 20.737C249.82 20.894 249.664 21.0517 249.509 21.2101L249.446 21.2737C249.396 21.3252 249.346 21.3767 249.296 21.4284L249.257 21.4681L249.168 21.5603C249.121 21.609 249.074 21.6577 249.027 21.7065C248.992 21.7425 248.958 21.7785 248.923 21.8146L248.872 21.8681L248.791 21.9533C240.092 31.0923 233.819 42.5573 231.002 55.3185C227.58 55.6258 224.114 55.7828 220.612 55.7828C192.5 55.7828 166.752 45.6692 146.816 28.8851C146.075 28.2273 145.325 27.579 144.566 26.9404C124.599 10.1298 98.8113 0 70.6557 0C61.3771 0 52.1893 1.82582 43.6169 5.37319C35.0446 8.92056 27.2556 14.12 20.6946 20.6747C14.1336 27.2294 8.92914 35.0109 5.37836 43.575C1.85531 52.0722 0.0286679 61.1747 0.000344568 70.3706L0 70.5878C0 79.8575 1.82758 89.0364 5.37836 97.6005C8.92914 106.165 14.1336 113.946 20.6946 120.501C27.2556 127.056 35.0446 132.255 43.6169 135.802C52.1893 139.35 61.3771 141.176 70.6557 141.176C98.8113 141.176 124.599 131.046 144.566 114.235C145.23 113.676 145.887 113.11 146.538 112.536L146.817 112.29C166.753 95.5062 192.5 85.3927 220.612 85.3927C224.114 85.3927 227.58 85.5497 231.002 85.857C233.819 98.6181 240.092 110.083 248.791 119.222L248.858 119.293C248.908 119.345 248.958 119.397 249.008 119.449C249.061 119.504 249.114 119.56 249.168 119.615L249.257 119.707C249.319 119.771 249.381 119.835 249.443 119.898L249.509 119.965C249.658 120.118 249.809 120.27 249.96 120.422L250 120.462L250.039 120.501C250.099 120.561 250.16 120.622 250.221 120.682L250.272 120.732C250.336 120.796 250.399 120.858 250.463 120.921L250.529 120.985C250.594 121.05 250.66 121.114 250.726 121.178L250.793 121.243C250.86 121.308 250.926 121.372 250.993 121.436L251.083 121.523L251.203 121.637C263.643 133.508 280.414 140.887 298.908 141.167C298.987 141.168 299.066 141.169 299.145 141.17L299.282 141.172C299.382 141.173 299.482 141.174 299.582 141.174L299.642 141.175C299.761 141.175 299.881 141.176 300 141.176L300.217 141.175L300.358 141.175L300.418 141.174C300.518 141.174 300.618 141.173 300.718 141.172L300.855 141.17C300.934 141.169 301.013 141.168 301.092 141.167C319.586 140.887 336.357 133.508 348.797 121.637L348.917 121.523L349.007 121.436C349.073 121.372 349.14 121.308 349.207 121.243L349.274 121.178C349.34 121.114 349.406 121.05 349.471 120.985L349.537 120.921C349.601 120.858 349.664 120.795 349.728 120.732L349.779 120.682C349.84 120.622 349.901 120.561 349.961 120.501L350 120.462L350.04 120.422C350.191 120.27 350.341 120.118 350.491 119.965L350.557 119.898C350.619 119.835 350.681 119.771 350.743 119.707L350.832 119.615C350.886 119.56 350.939 119.504 350.992 119.449C351.042 119.397 351.092 119.345 351.142 119.293L351.209 119.222C359.908 110.083 366.181 98.6181 368.998 85.857C372.42 85.5497 375.886 85.3927 379.388 85.3927C407.5 85.3927 433.247 95.5062 453.183 112.29C453.925 112.948 454.675 113.596 455.434 114.235C475.401 131.046 501.189 141.176 529.344 141.176L529.562 141.175C538.766 141.147 547.878 139.322 556.383 135.802C564.955 132.255 572.744 127.056 579.305 120.501C585.866 113.946 591.071 106.165 594.622 97.6005C598.145 89.1033 599.971 80.0009 600 70.805L600 70.5878C600 61.3181 598.172 52.1391 594.622 43.575C591.071 35.0109 585.866 27.2294 579.305 20.6747C572.744 14.12 564.955 8.92056 556.383 5.37319Z" fill="currentColor"/>
<path d="M272.046 188C271.806 188.928 271.444 190.43 271.278 191.299L185.293 598.678H414.705L328.719 191.299C328.554 190.43 328.192 188.928 327.951 188L327.905 187.822C324.652 175.452 313.391 166.328 299.999 166.328C286.607 166.328 275.346 175.452 272.093 187.822L272.046 188Z" fill="currentColor"/>
</svg>
