<svg width="600" height="600" viewBox="0 0 600 600" fill="none" xmlns="http://www.w3.org/2000/svg">
<path d="M556.383 6.30298C547.878 2.78326 538.766 0.958326 529.562 0.930032L529.344 0.929688C501.189 0.929688 475.401 11.0597 455.434 27.8706C454.675 28.5093 453.925 29.1576 453.184 29.8153C433.247 46.5997 407.5 56.7136 379.388 56.7136C375.886 56.7136 372.42 56.5566 368.998 56.2492C366.181 43.4878 359.908 32.0226 351.209 22.8835L351.128 22.7983L351.064 22.731C351.033 22.6995 351.003 22.6681 350.973 22.6366C350.926 22.5878 350.879 22.5391 350.832 22.4904L350.743 22.3982C350.706 22.3601 350.669 22.3221 350.632 22.2841L350.554 22.2038L350.491 22.1402C350.336 21.9818 350.18 21.8241 350.023 21.6671L350 21.6438L349.961 21.6048C349.899 21.5429 349.837 21.4813 349.775 21.4196L349.714 21.359C349.645 21.2911 349.577 21.2234 349.508 21.1559L349.46 21.109C349.398 21.0485 349.336 20.9881 349.274 20.9278L349.207 20.8623C349.139 20.7964 349.07 20.7306 349.002 20.6649L348.917 20.5829L348.796 20.4674C336.357 8.59664 319.586 1.21817 301.092 0.938208C301.013 0.936986 300.934 0.935894 300.855 0.934937L300.718 0.933474C300.618 0.93246 300.518 0.931655 300.418 0.931064L300.358 0.93072L300.217 0.930032L300 0.929688C299.881 0.929688 299.761 0.930116 299.642 0.93072L299.582 0.931064C299.482 0.931655 299.382 0.93246 299.282 0.933474L299.145 0.934937C299.066 0.935894 298.987 0.936985 298.908 0.938208C280.414 1.21819 263.643 8.59662 251.204 20.4674L251.083 20.5829L250.998 20.6649C250.93 20.7306 250.861 20.7963 250.793 20.8623L250.726 20.9278C250.664 20.9881 250.602 21.0485 250.54 21.109L250.492 21.1559C250.424 21.2234 250.355 21.2911 250.286 21.359L250.225 21.4196C250.163 21.4812 250.101 21.5429 250.039 21.6048L250 21.6438L249.977 21.6671C249.82 21.8241 249.664 21.9818 249.509 22.1402L249.446 22.2038C249.383 22.2685 249.32 22.3333 249.257 22.3982L249.168 22.4904C249.121 22.5391 249.074 22.5878 249.027 22.6366C248.992 22.6731 248.957 22.7097 248.922 22.7463L248.872 22.7983L248.791 22.8835C240.092 32.0226 233.819 43.4879 231.002 56.2492C227.58 56.5566 224.114 56.7136 220.612 56.7136C192.5 56.7136 166.752 46.5998 146.816 29.8153C146.075 29.1576 145.325 28.5092 144.566 27.8706C124.599 11.0597 98.8113 0.929688 70.6557 0.929688C61.3771 0.929688 52.1893 2.75555 43.6169 6.30298C35.0446 9.85042 27.2556 15.05 20.6946 21.6048C14.1336 28.1596 8.92914 35.9413 5.37836 44.5056C1.85531 53.0029 0.0286679 62.1056 0.000344568 71.3016L0 71.5188C0 80.7887 1.82758 89.9679 5.37836 98.5321C8.92914 107.096 14.1336 114.878 20.6946 121.433C27.2556 127.988 35.0446 133.187 43.6169 136.735C52.1893 140.282 61.3771 142.108 70.6557 142.108C98.8113 142.108 124.599 131.978 144.566 115.167C145.23 114.608 145.887 114.042 146.538 113.468L146.817 113.222C166.753 96.4378 192.5 86.3241 220.612 86.3241C224.114 86.3241 227.58 86.481 231.002 86.7884C233.819 99.5498 240.092 111.015 248.791 120.154L248.858 120.225C248.908 120.277 248.958 120.329 249.008 120.381C249.061 120.436 249.114 120.492 249.168 120.547L249.257 120.639C249.319 120.703 249.381 120.767 249.443 120.83L249.509 120.897C249.658 121.05 249.809 121.202 249.96 121.354L250 121.394L250.039 121.433C250.099 121.493 250.16 121.554 250.221 121.614L250.272 121.664C250.31 121.703 250.349 121.741 250.388 121.779L250.463 121.853L250.529 121.917C250.594 121.982 250.66 122.046 250.726 122.11L250.793 122.175C250.86 122.24 250.926 122.304 250.993 122.368L251.083 122.455L251.203 122.57C263.643 134.441 280.414 141.819 298.908 142.099C298.987 142.101 299.066 142.102 299.145 142.103L299.282 142.104C299.382 142.105 299.482 142.106 299.582 142.107L299.642 142.107C299.761 142.108 299.881 142.108 300 142.108L300.217 142.108L300.358 142.107L300.418 142.107C300.478 142.106 300.538 142.106 300.598 142.105L300.718 142.104L300.855 142.103C300.934 142.102 301.013 142.101 301.092 142.099C319.586 141.82 336.357 134.441 348.797 122.57L348.917 122.455L349.007 122.368C349.073 122.304 349.14 122.24 349.207 122.175L349.274 122.11C349.34 122.046 349.406 121.982 349.471 121.917L349.537 121.853C349.601 121.79 349.664 121.728 349.728 121.664L349.779 121.614C349.84 121.554 349.901 121.493 349.961 121.433L350 121.394L350.04 121.354C350.191 121.202 350.341 121.05 350.491 120.897L350.557 120.83C350.619 120.767 350.681 120.703 350.743 120.639L350.832 120.547C350.886 120.492 350.939 120.436 350.992 120.381C351.042 120.329 351.092 120.277 351.142 120.225L351.209 120.154C359.908 111.015 366.181 99.5498 368.998 86.7884C372.42 86.481 375.886 86.3241 379.388 86.3241C407.5 86.3241 433.247 96.4378 453.183 113.222C453.925 113.88 454.675 114.528 455.434 115.167C475.401 131.978 501.189 142.108 529.344 142.108L529.562 142.108C538.766 142.079 547.878 140.254 556.383 136.735C564.955 133.187 572.744 127.988 579.305 121.433C585.866 114.878 591.071 107.096 594.622 98.5321C598.145 90.0348 599.971 80.9321 600 71.7361L600 71.5188C600 62.2489 598.172 53.0698 594.622 44.5056C591.071 35.9413 585.866 28.1596 579.305 21.6048C572.744 15.05 564.955 9.85042 556.383 6.30298Z" fill="#F7F0E7"/>
<path d="M272.046 188.918C271.806 189.846 271.444 191.348 271.278 192.217L185.293 599.605H414.705L328.719 192.217C328.554 191.348 328.192 189.846 327.951 188.918L327.905 188.74C324.652 176.37 313.391 167.246 299.999 167.246C286.607 167.246 275.346 176.37 272.093 188.74L272.046 188.918Z" fill="#F7F0E7"/>
</svg>
